<svg xmlns="http://www.w3.org/2000/svg" viewBox="0 0 311.15 92.00" width="311.15" height="92.00">
<g transform="translate(14,14) scale(0.72727)"><circle cx="44" cy="44" r="27" fill="none" stroke="#0E4F57" stroke-width="2.5" opacity="0.32"/>
<line x1="44" y1="44" x2="44" y2="17" stroke="#14636B" stroke-width="2"/>
<line x1="44" y1="44" x2="20.62" y2="57.5" stroke="#14636B" stroke-width="2"/>
<line x1="44" y1="44" x2="67.38" y2="57.5" stroke="#14636B" stroke-width="2"/>
<circle cx="44" cy="17" r="5.5" fill="#14636B"/>
<circle cx="20.62" cy="57.5" r="5.5" fill="#14636B"/>
<circle cx="67.38" cy="57.5" r="5.5" fill="#14636B"/>
<circle cx="44" cy="44" r="9" fill="#21C7A8"/></g>
<g transform="translate(98.00,69.00) scale(0.06077,-0.06077)">
<path d="M322.75 -12Q241.5 -12 177.375 25.375Q113.25 62.75 75.875 127.375Q38.5 192 38.5 272.75Q38.5 353.5 75.5 417.625Q112.5 481.75 177.0 518.625Q241.5 555.5 322.75 555.5Q381 555.5 431.0 535.25Q481 515 517.25 479.25Q553.5 443.5 569.75 395.25L455.25 344.5Q439.75 386 404.375 410.75Q369 435.5 322.75 435.5Q280.25 435.5 246.75 414.625Q213.25 393.75 194.0 356.625Q174.75 319.5 174.75 271.75Q174.75 224.25 194.0 187.125Q213.25 150 246.75 129.0Q280.25 108 322.75 108Q369.75 108 404.625 132.75Q439.5 157.5 455.25 199.5L569.75 147.5Q554.25 101.75 518.0 65.5Q481.75 29.25 431.75 8.625Q381.75 -12 322.75 -12Z" transform="translate(-38.5,0)" fill="#0E4F57"/>
<path d="M326.5 -12Q246.75 -12 181.375 24.875Q116 61.75 77.25 126.0Q38.5 190.25 38.5 272Q38.5 354.25 77.125 418.0Q115.75 481.75 181.0 518.625Q246.25 555.5 326.5 555.5Q406.75 555.5 471.625 518.75Q536.5 482 575.0 418.25Q613.5 354.5 613.5 272Q613.5 190 574.625 125.75Q535.75 61.5 470.875 24.75Q406 -12 326.5 -12ZM326.5 108Q370.75 108 404.5 129.0Q438.25 150 457.75 187.25Q477.25 224.5 477.25 272Q477.25 319.5 457.75 356.125Q438.25 392.75 404.5 414.125Q370.75 435.5 326.5 435.5Q282.25 435.5 248.125 414.125Q214 392.75 194.375 356.125Q174.75 319.5 174.75 272Q174.75 224.5 194.375 187.25Q214 150 248.125 129.0Q282.25 108 326.5 108Z" transform="translate(539.5,0)" fill="#21C7A8"/>
<path d="M60.5 0V757H191.75V436.5L174 455.5Q193.25 505.25 236.5 530.375Q279.75 555.5 337.5 555.5Q398.25 555.5 444.5 529.5Q490.75 503.5 516.875 457.25Q543 411 543 350.25V0H411.75V319Q411.75 355.25 397.875 381.0Q384 406.75 359.25 421.125Q334.5 435.5 302 435.5Q270.25 435.5 245.0 421.125Q219.75 406.75 205.75 380.875Q191.75 355 191.75 319V0Z" transform="translate(1161.5,0)" fill="#0E4F57"/>
<path d="M318.75 -12Q234.75 -12 171.625 26.0Q108.5 64 73.5 128.75Q38.5 193.5 38.5 273Q38.5 354.75 74.375 418.375Q110.25 482 171.375 518.75Q232.5 555.5 309.25 555.5Q372.5 555.5 421.375 534.75Q470.25 514 504.125 477.125Q538 440.25 555.75 392.5Q573.5 344.75 573.5 290Q573.5 275.5 572.125 260.75Q570.75 246 567.25 234.5H147.25V334.5H492.75L430.5 288Q440.25 334 426.625 370.0Q413 406 382.375 427.0Q351.75 448 309.25 448Q267.5 448 235.875 427.25Q204.25 406.5 187.75 367.125Q171.25 327.75 174.75 272Q170.5 221.5 188.125 183.375Q205.75 145.25 240.125 124.125Q274.5 103 320.25 103Q365 103 396.375 122.0Q427.75 141 446 172.5L552 121.25Q536 82.25 501.875 52.125Q467.75 22 421.125 5.0Q374.5 -12 318.75 -12Z" transform="translate(1724.5,0)" fill="#0E4F57"/>
<path d="M13.75 0V106.25L330 472L350 427.25H27.75V543.5H466.25V437.25L156.25 70.75L136.25 116.25H467.5V0Z" transform="translate(2306.5,0)" fill="#0E4F57"/>
<path d="M226 -12Q169 -12 126.75 7.125Q84.5 26.25 61.5 61.375Q38.5 96.5 38.5 144.25Q38.5 189.25 58.75 224.5Q79 259.75 121.125 283.75Q163.25 307.75 226.75 317.75L404.5 346.75V247.25L251.5 220.5Q213 213.5 193.875 195.875Q174.75 178.25 174.75 148.75Q174.75 121 196.125 104.25Q217.5 87.5 249.75 87.5Q291.25 87.5 322.5 105.375Q353.75 123.25 371.125 153.875Q388.5 184.5 388.5 221.5V362Q388.5 397.25 361.375 420.5Q334.25 443.75 288.75 443.75Q246.5 443.75 214.375 421.125Q182.25 398.5 167.25 361.75L60.25 413.75Q76 456.75 110.375 488.5Q144.75 520.25 192.0 537.875Q239.25 555.5 294 555.5Q360.5 555.5 411.625 531.0Q462.75 506.5 491.25 463.0Q519.75 419.5 519.75 362V0H396V92.75L424.25 94.5Q402.75 60 373.625 36.25Q344.5 12.5 307.625 0.25Q270.75 -12 226 -12Z" transform="translate(2757.5,0)" fill="#0E4F57"/>
</g>
</svg>
